%TF.GenerationSoftware,KiCad,Pcbnew,(5.1.6)-1*%
%TF.CreationDate,2020-10-18T20:28:26+13:00*%
%TF.ProjectId,Jacks onboard,4a61636b-7320-46f6-9e62-6f6172642e6b,rev?*%
%TF.SameCoordinates,Original*%
%TF.FileFunction,Legend,Top*%
%TF.FilePolarity,Positive*%
%FSLAX46Y46*%
G04 Gerber Fmt 4.6, Leading zero omitted, Abs format (unit mm)*
G04 Created by KiCad (PCBNEW (5.1.6)-1) date 2020-10-18 20:28:26*
%MOMM*%
%LPD*%
G01*
G04 APERTURE LIST*
%ADD10C,0.100000*%
%ADD11C,0.150000*%
%ADD12C,0.120000*%
%ADD13C,0.125000*%
G04 APERTURE END LIST*
D10*
X180095238Y-60401190D02*
X179809523Y-60401190D01*
X179952380Y-60401190D02*
X179952380Y-59901190D01*
X179904761Y-59972619D01*
X179857142Y-60020238D01*
X179809523Y-60044047D01*
X180380952Y-60115476D02*
X180333333Y-60091666D01*
X180309523Y-60067857D01*
X180285714Y-60020238D01*
X180285714Y-59996428D01*
X180309523Y-59948809D01*
X180333333Y-59925000D01*
X180380952Y-59901190D01*
X180476190Y-59901190D01*
X180523809Y-59925000D01*
X180547619Y-59948809D01*
X180571428Y-59996428D01*
X180571428Y-60020238D01*
X180547619Y-60067857D01*
X180523809Y-60091666D01*
X180476190Y-60115476D01*
X180380952Y-60115476D01*
X180333333Y-60139285D01*
X180309523Y-60163095D01*
X180285714Y-60210714D01*
X180285714Y-60305952D01*
X180309523Y-60353571D01*
X180333333Y-60377380D01*
X180380952Y-60401190D01*
X180476190Y-60401190D01*
X180523809Y-60377380D01*
X180547619Y-60353571D01*
X180571428Y-60305952D01*
X180571428Y-60210714D01*
X180547619Y-60163095D01*
X180523809Y-60139285D01*
X180476190Y-60115476D01*
X181428571Y-60401190D02*
X181142857Y-60401190D01*
X181285714Y-60401190D02*
X181285714Y-59901190D01*
X181238095Y-59972619D01*
X181190476Y-60020238D01*
X181142857Y-60044047D01*
X181738095Y-59901190D02*
X181785714Y-59901190D01*
X181833333Y-59925000D01*
X181857142Y-59948809D01*
X181880952Y-59996428D01*
X181904761Y-60091666D01*
X181904761Y-60210714D01*
X181880952Y-60305952D01*
X181857142Y-60353571D01*
X181833333Y-60377380D01*
X181785714Y-60401190D01*
X181738095Y-60401190D01*
X181690476Y-60377380D01*
X181666666Y-60353571D01*
X181642857Y-60305952D01*
X181619047Y-60210714D01*
X181619047Y-60091666D01*
X181642857Y-59996428D01*
X181666666Y-59948809D01*
X181690476Y-59925000D01*
X181738095Y-59901190D01*
X182476190Y-59948809D02*
X182500000Y-59925000D01*
X182547619Y-59901190D01*
X182666666Y-59901190D01*
X182714285Y-59925000D01*
X182738095Y-59948809D01*
X182761904Y-59996428D01*
X182761904Y-60044047D01*
X182738095Y-60115476D01*
X182452380Y-60401190D01*
X182761904Y-60401190D01*
X183071428Y-59901190D02*
X183119047Y-59901190D01*
X183166666Y-59925000D01*
X183190476Y-59948809D01*
X183214285Y-59996428D01*
X183238095Y-60091666D01*
X183238095Y-60210714D01*
X183214285Y-60305952D01*
X183190476Y-60353571D01*
X183166666Y-60377380D01*
X183119047Y-60401190D01*
X183071428Y-60401190D01*
X183023809Y-60377380D01*
X183000000Y-60353571D01*
X182976190Y-60305952D01*
X182952380Y-60210714D01*
X182952380Y-60091666D01*
X182976190Y-59996428D01*
X183000000Y-59948809D01*
X183023809Y-59925000D01*
X183071428Y-59901190D01*
X183428571Y-59948809D02*
X183452380Y-59925000D01*
X183500000Y-59901190D01*
X183619047Y-59901190D01*
X183666666Y-59925000D01*
X183690476Y-59948809D01*
X183714285Y-59996428D01*
X183714285Y-60044047D01*
X183690476Y-60115476D01*
X183404761Y-60401190D01*
X183714285Y-60401190D01*
X184023809Y-59901190D02*
X184071428Y-59901190D01*
X184119047Y-59925000D01*
X184142857Y-59948809D01*
X184166666Y-59996428D01*
X184190476Y-60091666D01*
X184190476Y-60210714D01*
X184166666Y-60305952D01*
X184142857Y-60353571D01*
X184119047Y-60377380D01*
X184071428Y-60401190D01*
X184023809Y-60401190D01*
X183976190Y-60377380D01*
X183952380Y-60353571D01*
X183928571Y-60305952D01*
X183904761Y-60210714D01*
X183904761Y-60091666D01*
X183928571Y-59996428D01*
X183952380Y-59948809D01*
X183976190Y-59925000D01*
X184023809Y-59901190D01*
X181047619Y-60751190D02*
X181214285Y-61251190D01*
X181380952Y-60751190D01*
X182190476Y-61251190D02*
X181904761Y-61251190D01*
X182047619Y-61251190D02*
X182047619Y-60751190D01*
X182000000Y-60822619D01*
X181952380Y-60870238D01*
X181904761Y-60894047D01*
X182404761Y-61203571D02*
X182428571Y-61227380D01*
X182404761Y-61251190D01*
X182380952Y-61227380D01*
X182404761Y-61203571D01*
X182404761Y-61251190D01*
X182738095Y-60751190D02*
X182785714Y-60751190D01*
X182833333Y-60775000D01*
X182857142Y-60798809D01*
X182880952Y-60846428D01*
X182904761Y-60941666D01*
X182904761Y-61060714D01*
X182880952Y-61155952D01*
X182857142Y-61203571D01*
X182833333Y-61227380D01*
X182785714Y-61251190D01*
X182738095Y-61251190D01*
X182690476Y-61227380D01*
X182666666Y-61203571D01*
X182642857Y-61155952D01*
X182619047Y-61060714D01*
X182619047Y-60941666D01*
X182642857Y-60846428D01*
X182666666Y-60798809D01*
X182690476Y-60775000D01*
X182738095Y-60751190D01*
X179690476Y-58926190D02*
X179690476Y-59283333D01*
X179666666Y-59354761D01*
X179619047Y-59402380D01*
X179547619Y-59426190D01*
X179500000Y-59426190D01*
X180166666Y-59426190D02*
X179928571Y-59426190D01*
X179928571Y-58926190D01*
X180619047Y-59378571D02*
X180595238Y-59402380D01*
X180523809Y-59426190D01*
X180476190Y-59426190D01*
X180404761Y-59402380D01*
X180357142Y-59354761D01*
X180333333Y-59307142D01*
X180309523Y-59211904D01*
X180309523Y-59140476D01*
X180333333Y-59045238D01*
X180357142Y-58997619D01*
X180404761Y-58950000D01*
X180476190Y-58926190D01*
X180523809Y-58926190D01*
X180595238Y-58950000D01*
X180619047Y-58973809D01*
X180976190Y-58926190D02*
X180976190Y-59283333D01*
X180952380Y-59354761D01*
X180904761Y-59402380D01*
X180833333Y-59426190D01*
X180785714Y-59426190D01*
X181452380Y-59426190D02*
X181214285Y-59426190D01*
X181214285Y-58926190D01*
X181904761Y-59378571D02*
X181880952Y-59402380D01*
X181809523Y-59426190D01*
X181761904Y-59426190D01*
X181690476Y-59402380D01*
X181642857Y-59354761D01*
X181619047Y-59307142D01*
X181595238Y-59211904D01*
X181595238Y-59140476D01*
X181619047Y-59045238D01*
X181642857Y-58997619D01*
X181690476Y-58950000D01*
X181761904Y-58926190D01*
X181809523Y-58926190D01*
X181880952Y-58950000D01*
X181904761Y-58973809D01*
X182261904Y-58926190D02*
X182261904Y-59283333D01*
X182238095Y-59354761D01*
X182190476Y-59402380D01*
X182119047Y-59426190D01*
X182071428Y-59426190D01*
X182738095Y-59426190D02*
X182500000Y-59426190D01*
X182500000Y-58926190D01*
X183190476Y-59378571D02*
X183166666Y-59402380D01*
X183095238Y-59426190D01*
X183047619Y-59426190D01*
X182976190Y-59402380D01*
X182928571Y-59354761D01*
X182904761Y-59307142D01*
X182880952Y-59211904D01*
X182880952Y-59140476D01*
X182904761Y-59045238D01*
X182928571Y-58997619D01*
X182976190Y-58950000D01*
X183047619Y-58926190D01*
X183095238Y-58926190D01*
X183166666Y-58950000D01*
X183190476Y-58973809D01*
X183547619Y-58926190D02*
X183547619Y-59283333D01*
X183523809Y-59354761D01*
X183476190Y-59402380D01*
X183404761Y-59426190D01*
X183357142Y-59426190D01*
X184023809Y-59426190D02*
X183785714Y-59426190D01*
X183785714Y-58926190D01*
X184476190Y-59378571D02*
X184452380Y-59402380D01*
X184380952Y-59426190D01*
X184333333Y-59426190D01*
X184261904Y-59402380D01*
X184214285Y-59354761D01*
X184190476Y-59307142D01*
X184166666Y-59211904D01*
X184166666Y-59140476D01*
X184190476Y-59045238D01*
X184214285Y-58997619D01*
X184261904Y-58950000D01*
X184333333Y-58926190D01*
X184380952Y-58926190D01*
X184452380Y-58950000D01*
X184476190Y-58973809D01*
D11*
X173291619Y-98639380D02*
X173624952Y-99639380D01*
X173958285Y-98639380D01*
X174291619Y-99258428D02*
X175053523Y-99258428D01*
X173482095Y-96020000D02*
X173386857Y-95972380D01*
X173244000Y-95972380D01*
X173101142Y-96020000D01*
X173005904Y-96115238D01*
X172958285Y-96210476D01*
X172910666Y-96400952D01*
X172910666Y-96543809D01*
X172958285Y-96734285D01*
X173005904Y-96829523D01*
X173101142Y-96924761D01*
X173244000Y-96972380D01*
X173339238Y-96972380D01*
X173482095Y-96924761D01*
X173529714Y-96877142D01*
X173529714Y-96543809D01*
X173339238Y-96543809D01*
X173958285Y-96972380D02*
X173958285Y-95972380D01*
X174529714Y-96972380D01*
X174529714Y-95972380D01*
X175005904Y-96972380D02*
X175005904Y-95972380D01*
X175244000Y-95972380D01*
X175386857Y-96020000D01*
X175482095Y-96115238D01*
X175529714Y-96210476D01*
X175577333Y-96400952D01*
X175577333Y-96543809D01*
X175529714Y-96734285D01*
X175482095Y-96829523D01*
X175386857Y-96924761D01*
X175244000Y-96972380D01*
X175005904Y-96972380D01*
X173418619Y-50125380D02*
X173751952Y-51125380D01*
X174085285Y-50125380D01*
X174418619Y-50744428D02*
X175180523Y-50744428D01*
X174799571Y-51125380D02*
X174799571Y-50363476D01*
X173863095Y-52967000D02*
X173767857Y-52919380D01*
X173625000Y-52919380D01*
X173482142Y-52967000D01*
X173386904Y-53062238D01*
X173339285Y-53157476D01*
X173291666Y-53347952D01*
X173291666Y-53490809D01*
X173339285Y-53681285D01*
X173386904Y-53776523D01*
X173482142Y-53871761D01*
X173625000Y-53919380D01*
X173720238Y-53919380D01*
X173863095Y-53871761D01*
X173910714Y-53824142D01*
X173910714Y-53490809D01*
X173720238Y-53490809D01*
X174339285Y-53919380D02*
X174339285Y-52919380D01*
X174910714Y-53919380D01*
X174910714Y-52919380D01*
X175386904Y-53919380D02*
X175386904Y-52919380D01*
X175625000Y-52919380D01*
X175767857Y-52967000D01*
X175863095Y-53062238D01*
X175910714Y-53157476D01*
X175958333Y-53347952D01*
X175958333Y-53490809D01*
X175910714Y-53681285D01*
X175863095Y-53776523D01*
X175767857Y-53871761D01*
X175625000Y-53919380D01*
X175386904Y-53919380D01*
X173932952Y-55949904D02*
X174390095Y-55949904D01*
X174161523Y-56749904D02*
X174161523Y-55949904D01*
X174656761Y-56749904D02*
X174656761Y-55949904D01*
X175037714Y-56749904D02*
X175037714Y-55949904D01*
X175342476Y-55949904D01*
X175418666Y-55988000D01*
X175456761Y-56026095D01*
X175494857Y-56102285D01*
X175494857Y-56216571D01*
X175456761Y-56292761D01*
X175418666Y-56330857D01*
X175342476Y-56368952D01*
X175037714Y-56368952D01*
X172993238Y-64115904D02*
X172993238Y-63315904D01*
X173450380Y-64115904D01*
X173450380Y-63315904D01*
X173983714Y-63315904D02*
X174136095Y-63315904D01*
X174212285Y-63354000D01*
X174288476Y-63430190D01*
X174326571Y-63582571D01*
X174326571Y-63849238D01*
X174288476Y-64001619D01*
X174212285Y-64077809D01*
X174136095Y-64115904D01*
X173983714Y-64115904D01*
X173907523Y-64077809D01*
X173831333Y-64001619D01*
X173793238Y-63849238D01*
X173793238Y-63582571D01*
X173831333Y-63430190D01*
X173907523Y-63354000D01*
X173983714Y-63315904D01*
X175126571Y-64115904D02*
X174859904Y-63734952D01*
X174669428Y-64115904D02*
X174669428Y-63315904D01*
X174974190Y-63315904D01*
X175050380Y-63354000D01*
X175088476Y-63392095D01*
X175126571Y-63468285D01*
X175126571Y-63582571D01*
X175088476Y-63658761D01*
X175050380Y-63696857D01*
X174974190Y-63734952D01*
X174669428Y-63734952D01*
X175469428Y-64115904D02*
X175469428Y-63315904D01*
X175736095Y-63887333D01*
X176002761Y-63315904D01*
X176002761Y-64115904D01*
X173932952Y-65855904D02*
X174390095Y-65855904D01*
X174161523Y-66655904D02*
X174161523Y-65855904D01*
X174656761Y-66655904D02*
X174656761Y-65855904D01*
X175037714Y-66655904D02*
X175037714Y-65855904D01*
X175342476Y-65855904D01*
X175418666Y-65894000D01*
X175456761Y-65932095D01*
X175494857Y-66008285D01*
X175494857Y-66122571D01*
X175456761Y-66198761D01*
X175418666Y-66236857D01*
X175342476Y-66274952D01*
X175037714Y-66274952D01*
X172993238Y-74021904D02*
X172993238Y-73221904D01*
X173450380Y-74021904D01*
X173450380Y-73221904D01*
X173983714Y-73221904D02*
X174136095Y-73221904D01*
X174212285Y-73260000D01*
X174288476Y-73336190D01*
X174326571Y-73488571D01*
X174326571Y-73755238D01*
X174288476Y-73907619D01*
X174212285Y-73983809D01*
X174136095Y-74021904D01*
X173983714Y-74021904D01*
X173907523Y-73983809D01*
X173831333Y-73907619D01*
X173793238Y-73755238D01*
X173793238Y-73488571D01*
X173831333Y-73336190D01*
X173907523Y-73260000D01*
X173983714Y-73221904D01*
X175126571Y-74021904D02*
X174859904Y-73640952D01*
X174669428Y-74021904D02*
X174669428Y-73221904D01*
X174974190Y-73221904D01*
X175050380Y-73260000D01*
X175088476Y-73298095D01*
X175126571Y-73374285D01*
X175126571Y-73488571D01*
X175088476Y-73564761D01*
X175050380Y-73602857D01*
X174974190Y-73640952D01*
X174669428Y-73640952D01*
X175469428Y-74021904D02*
X175469428Y-73221904D01*
X175736095Y-73793333D01*
X176002761Y-73221904D01*
X176002761Y-74021904D01*
X173932952Y-75761904D02*
X174390095Y-75761904D01*
X174161523Y-76561904D02*
X174161523Y-75761904D01*
X174656761Y-76561904D02*
X174656761Y-75761904D01*
X175037714Y-76561904D02*
X175037714Y-75761904D01*
X175342476Y-75761904D01*
X175418666Y-75800000D01*
X175456761Y-75838095D01*
X175494857Y-75914285D01*
X175494857Y-76028571D01*
X175456761Y-76104761D01*
X175418666Y-76142857D01*
X175342476Y-76180952D01*
X175037714Y-76180952D01*
X172993238Y-83927904D02*
X172993238Y-83127904D01*
X173450380Y-83927904D01*
X173450380Y-83127904D01*
X173983714Y-83127904D02*
X174136095Y-83127904D01*
X174212285Y-83166000D01*
X174288476Y-83242190D01*
X174326571Y-83394571D01*
X174326571Y-83661238D01*
X174288476Y-83813619D01*
X174212285Y-83889809D01*
X174136095Y-83927904D01*
X173983714Y-83927904D01*
X173907523Y-83889809D01*
X173831333Y-83813619D01*
X173793238Y-83661238D01*
X173793238Y-83394571D01*
X173831333Y-83242190D01*
X173907523Y-83166000D01*
X173983714Y-83127904D01*
X175126571Y-83927904D02*
X174859904Y-83546952D01*
X174669428Y-83927904D02*
X174669428Y-83127904D01*
X174974190Y-83127904D01*
X175050380Y-83166000D01*
X175088476Y-83204095D01*
X175126571Y-83280285D01*
X175126571Y-83394571D01*
X175088476Y-83470761D01*
X175050380Y-83508857D01*
X174974190Y-83546952D01*
X174669428Y-83546952D01*
X175469428Y-83927904D02*
X175469428Y-83127904D01*
X175736095Y-83699333D01*
X176002761Y-83127904D01*
X176002761Y-83927904D01*
X172993238Y-93833904D02*
X172993238Y-93033904D01*
X173450380Y-93833904D01*
X173450380Y-93033904D01*
X173983714Y-93033904D02*
X174136095Y-93033904D01*
X174212285Y-93072000D01*
X174288476Y-93148190D01*
X174326571Y-93300571D01*
X174326571Y-93567238D01*
X174288476Y-93719619D01*
X174212285Y-93795809D01*
X174136095Y-93833904D01*
X173983714Y-93833904D01*
X173907523Y-93795809D01*
X173831333Y-93719619D01*
X173793238Y-93567238D01*
X173793238Y-93300571D01*
X173831333Y-93148190D01*
X173907523Y-93072000D01*
X173983714Y-93033904D01*
X175126571Y-93833904D02*
X174859904Y-93452952D01*
X174669428Y-93833904D02*
X174669428Y-93033904D01*
X174974190Y-93033904D01*
X175050380Y-93072000D01*
X175088476Y-93110095D01*
X175126571Y-93186285D01*
X175126571Y-93300571D01*
X175088476Y-93376761D01*
X175050380Y-93414857D01*
X174974190Y-93452952D01*
X174669428Y-93452952D01*
X175469428Y-93833904D02*
X175469428Y-93033904D01*
X175736095Y-93605333D01*
X176002761Y-93033904D01*
X176002761Y-93833904D01*
X173932952Y-85667904D02*
X174390095Y-85667904D01*
X174161523Y-86467904D02*
X174161523Y-85667904D01*
X174656761Y-86467904D02*
X174656761Y-85667904D01*
X175037714Y-86467904D02*
X175037714Y-85667904D01*
X175342476Y-85667904D01*
X175418666Y-85706000D01*
X175456761Y-85744095D01*
X175494857Y-85820285D01*
X175494857Y-85934571D01*
X175456761Y-86010761D01*
X175418666Y-86048857D01*
X175342476Y-86086952D01*
X175037714Y-86086952D01*
D12*
%TO.C,J5*%
X174498000Y-87189000D02*
X175828000Y-87189000D01*
X175828000Y-87189000D02*
X175828000Y-88519000D01*
X175828000Y-89789000D02*
X175828000Y-92389000D01*
X173168000Y-92389000D02*
X175828000Y-92389000D01*
X173168000Y-89789000D02*
X173168000Y-92389000D01*
X173168000Y-89789000D02*
X175828000Y-89789000D01*
%TO.C,J6*%
X173168000Y-79883000D02*
X175828000Y-79883000D01*
X173168000Y-79883000D02*
X173168000Y-82483000D01*
X173168000Y-82483000D02*
X175828000Y-82483000D01*
X175828000Y-79883000D02*
X175828000Y-82483000D01*
X175828000Y-77283000D02*
X175828000Y-78613000D01*
X174498000Y-77283000D02*
X175828000Y-77283000D01*
%TO.C,J7*%
X190230000Y-59011000D02*
X190230000Y-59871000D01*
X190230000Y-59011000D02*
X189430000Y-59011000D01*
X184550000Y-60071000D02*
G75*
G03*
X184550000Y-60071000I-1800000J0D01*
G01*
X187250000Y-59721000D02*
X187250000Y-55571000D01*
X187250000Y-64571000D02*
X187250000Y-60421000D01*
X176750000Y-59571000D02*
X176750000Y-55571000D01*
X176750000Y-64571000D02*
X176750000Y-60571000D01*
X187250000Y-64571000D02*
X176750000Y-64571000D01*
X187250000Y-55571000D02*
X176750000Y-55571000D01*
%TO.C,J8*%
X187250000Y-65477000D02*
X176750000Y-65477000D01*
X187250000Y-74477000D02*
X176750000Y-74477000D01*
X176750000Y-74477000D02*
X176750000Y-70477000D01*
X176750000Y-69477000D02*
X176750000Y-65477000D01*
X187250000Y-74477000D02*
X187250000Y-70327000D01*
X187250000Y-69627000D02*
X187250000Y-65477000D01*
X184550000Y-69977000D02*
G75*
G03*
X184550000Y-69977000I-1800000J0D01*
G01*
X190230000Y-68917000D02*
X189430000Y-68917000D01*
X190230000Y-68917000D02*
X190230000Y-69777000D01*
%TO.C,J9*%
X174498000Y-57471000D02*
X175828000Y-57471000D01*
X175828000Y-57471000D02*
X175828000Y-58801000D01*
X175828000Y-60071000D02*
X175828000Y-62671000D01*
X173168000Y-62671000D02*
X175828000Y-62671000D01*
X173168000Y-60071000D02*
X173168000Y-62671000D01*
X173168000Y-60071000D02*
X175828000Y-60071000D01*
%TO.C,J10*%
X173168000Y-69977000D02*
X175828000Y-69977000D01*
X173168000Y-69977000D02*
X173168000Y-72577000D01*
X173168000Y-72577000D02*
X175828000Y-72577000D01*
X175828000Y-69977000D02*
X175828000Y-72577000D01*
X175828000Y-67377000D02*
X175828000Y-68707000D01*
X174498000Y-67377000D02*
X175828000Y-67377000D01*
%TO.C,J1*%
X190230000Y-88729000D02*
X190230000Y-89589000D01*
X190230000Y-88729000D02*
X189430000Y-88729000D01*
X184550000Y-89789000D02*
G75*
G03*
X184550000Y-89789000I-1800000J0D01*
G01*
X187250000Y-89439000D02*
X187250000Y-85289000D01*
X187250000Y-94289000D02*
X187250000Y-90139000D01*
X176750000Y-89289000D02*
X176750000Y-85289000D01*
X176750000Y-94289000D02*
X176750000Y-90289000D01*
X187250000Y-94289000D02*
X176750000Y-94289000D01*
X187250000Y-85289000D02*
X176750000Y-85289000D01*
%TO.C,J2*%
X187250000Y-75383000D02*
X176750000Y-75383000D01*
X187250000Y-84383000D02*
X176750000Y-84383000D01*
X176750000Y-84383000D02*
X176750000Y-80383000D01*
X176750000Y-79383000D02*
X176750000Y-75383000D01*
X187250000Y-84383000D02*
X187250000Y-80233000D01*
X187250000Y-79533000D02*
X187250000Y-75383000D01*
X184550000Y-79883000D02*
G75*
G03*
X184550000Y-79883000I-1800000J0D01*
G01*
X190230000Y-78823000D02*
X189430000Y-78823000D01*
X190230000Y-78823000D02*
X190230000Y-79683000D01*
%TO.C,J5*%
D13*
X172934333Y-86086190D02*
X172934333Y-86443333D01*
X172910523Y-86514761D01*
X172862904Y-86562380D01*
X172791476Y-86586190D01*
X172743857Y-86586190D01*
X173410523Y-86086190D02*
X173172428Y-86086190D01*
X173148619Y-86324285D01*
X173172428Y-86300476D01*
X173220047Y-86276666D01*
X173339095Y-86276666D01*
X173386714Y-86300476D01*
X173410523Y-86324285D01*
X173434333Y-86371904D01*
X173434333Y-86490952D01*
X173410523Y-86538571D01*
X173386714Y-86562380D01*
X173339095Y-86586190D01*
X173220047Y-86586190D01*
X173172428Y-86562380D01*
X173148619Y-86538571D01*
%TO.C,J6*%
X172934333Y-76180190D02*
X172934333Y-76537333D01*
X172910523Y-76608761D01*
X172862904Y-76656380D01*
X172791476Y-76680190D01*
X172743857Y-76680190D01*
X173386714Y-76180190D02*
X173291476Y-76180190D01*
X173243857Y-76204000D01*
X173220047Y-76227809D01*
X173172428Y-76299238D01*
X173148619Y-76394476D01*
X173148619Y-76584952D01*
X173172428Y-76632571D01*
X173196238Y-76656380D01*
X173243857Y-76680190D01*
X173339095Y-76680190D01*
X173386714Y-76656380D01*
X173410523Y-76632571D01*
X173434333Y-76584952D01*
X173434333Y-76465904D01*
X173410523Y-76418285D01*
X173386714Y-76394476D01*
X173339095Y-76370666D01*
X173243857Y-76370666D01*
X173196238Y-76394476D01*
X173172428Y-76418285D01*
X173148619Y-76465904D01*
%TO.C,J7*%
D11*
X187602380Y-56374333D02*
X188316666Y-56374333D01*
X188459523Y-56421952D01*
X188554761Y-56517190D01*
X188602380Y-56660047D01*
X188602380Y-56755285D01*
X187602380Y-55993380D02*
X187602380Y-55326714D01*
X188602380Y-55755285D01*
%TO.C,J8*%
X187602380Y-66280333D02*
X188316666Y-66280333D01*
X188459523Y-66327952D01*
X188554761Y-66423190D01*
X188602380Y-66566047D01*
X188602380Y-66661285D01*
X188030952Y-65661285D02*
X187983333Y-65756523D01*
X187935714Y-65804142D01*
X187840476Y-65851761D01*
X187792857Y-65851761D01*
X187697619Y-65804142D01*
X187650000Y-65756523D01*
X187602380Y-65661285D01*
X187602380Y-65470809D01*
X187650000Y-65375571D01*
X187697619Y-65327952D01*
X187792857Y-65280333D01*
X187840476Y-65280333D01*
X187935714Y-65327952D01*
X187983333Y-65375571D01*
X188030952Y-65470809D01*
X188030952Y-65661285D01*
X188078571Y-65756523D01*
X188126190Y-65804142D01*
X188221428Y-65851761D01*
X188411904Y-65851761D01*
X188507142Y-65804142D01*
X188554761Y-65756523D01*
X188602380Y-65661285D01*
X188602380Y-65470809D01*
X188554761Y-65375571D01*
X188507142Y-65327952D01*
X188411904Y-65280333D01*
X188221428Y-65280333D01*
X188126190Y-65327952D01*
X188078571Y-65375571D01*
X188030952Y-65470809D01*
%TO.C,J9*%
D13*
X172934333Y-56368190D02*
X172934333Y-56725333D01*
X172910523Y-56796761D01*
X172862904Y-56844380D01*
X172791476Y-56868190D01*
X172743857Y-56868190D01*
X173196238Y-56868190D02*
X173291476Y-56868190D01*
X173339095Y-56844380D01*
X173362904Y-56820571D01*
X173410523Y-56749142D01*
X173434333Y-56653904D01*
X173434333Y-56463428D01*
X173410523Y-56415809D01*
X173386714Y-56392000D01*
X173339095Y-56368190D01*
X173243857Y-56368190D01*
X173196238Y-56392000D01*
X173172428Y-56415809D01*
X173148619Y-56463428D01*
X173148619Y-56582476D01*
X173172428Y-56630095D01*
X173196238Y-56653904D01*
X173243857Y-56677714D01*
X173339095Y-56677714D01*
X173386714Y-56653904D01*
X173410523Y-56630095D01*
X173434333Y-56582476D01*
%TO.C,J10*%
X172950238Y-66274190D02*
X172950238Y-66631333D01*
X172926428Y-66702761D01*
X172878809Y-66750380D01*
X172807380Y-66774190D01*
X172759761Y-66774190D01*
X173450238Y-66774190D02*
X173164523Y-66774190D01*
X173307380Y-66774190D02*
X173307380Y-66274190D01*
X173259761Y-66345619D01*
X173212142Y-66393238D01*
X173164523Y-66417047D01*
X173759761Y-66274190D02*
X173807380Y-66274190D01*
X173855000Y-66298000D01*
X173878809Y-66321809D01*
X173902619Y-66369428D01*
X173926428Y-66464666D01*
X173926428Y-66583714D01*
X173902619Y-66678952D01*
X173878809Y-66726571D01*
X173855000Y-66750380D01*
X173807380Y-66774190D01*
X173759761Y-66774190D01*
X173712142Y-66750380D01*
X173688333Y-66726571D01*
X173664523Y-66678952D01*
X173640714Y-66583714D01*
X173640714Y-66464666D01*
X173664523Y-66369428D01*
X173688333Y-66321809D01*
X173712142Y-66298000D01*
X173759761Y-66274190D01*
%TO.C,J1*%
D11*
X187602380Y-86092333D02*
X188316666Y-86092333D01*
X188459523Y-86139952D01*
X188554761Y-86235190D01*
X188602380Y-86378047D01*
X188602380Y-86473285D01*
X188602380Y-85092333D02*
X188602380Y-85663761D01*
X188602380Y-85378047D02*
X187602380Y-85378047D01*
X187745238Y-85473285D01*
X187840476Y-85568523D01*
X187888095Y-85663761D01*
%TO.C,J2*%
X187602380Y-76186333D02*
X188316666Y-76186333D01*
X188459523Y-76233952D01*
X188554761Y-76329190D01*
X188602380Y-76472047D01*
X188602380Y-76567285D01*
X187697619Y-75757761D02*
X187650000Y-75710142D01*
X187602380Y-75614904D01*
X187602380Y-75376809D01*
X187650000Y-75281571D01*
X187697619Y-75233952D01*
X187792857Y-75186333D01*
X187888095Y-75186333D01*
X188030952Y-75233952D01*
X188602380Y-75805380D01*
X188602380Y-75186333D01*
%TD*%
M02*
