%TF.GenerationSoftware,KiCad,Pcbnew,(5.1.6)-1*%
%TF.CreationDate,2020-10-18T20:28:26+13:00*%
%TF.ProjectId,Jacks onboard,4a61636b-7320-46f6-9e62-6f6172642e6b,rev?*%
%TF.SameCoordinates,Original*%
%TF.FileFunction,Soldermask,Bot*%
%TF.FilePolarity,Negative*%
%FSLAX46Y46*%
G04 Gerber Fmt 4.6, Leading zero omitted, Abs format (unit mm)*
G04 Created by KiCad (PCBNEW (5.1.6)-1) date 2020-10-18 20:28:26*
%MOMM*%
%LPD*%
G01*
G04 APERTURE LIST*
%ADD10R,1.800000X1.800000*%
%ADD11O,1.800000X1.800000*%
%ADD12C,2.230000*%
%ADD13R,1.930000X2.030000*%
G04 APERTURE END LIST*
D10*
%TO.C,J3*%
X187960000Y-53340000D03*
D11*
X187960000Y-50800000D03*
X185420000Y-53340000D03*
X185420000Y-50800000D03*
X182880000Y-53340000D03*
X182880000Y-50800000D03*
X180340000Y-53340000D03*
X180340000Y-50800000D03*
X177800000Y-53340000D03*
X177800000Y-50800000D03*
%TD*%
%TO.C,J4*%
X177800000Y-96520000D03*
X177800000Y-99060000D03*
X180340000Y-96520000D03*
X180340000Y-99060000D03*
X182880000Y-96520000D03*
X182880000Y-99060000D03*
X185420000Y-96520000D03*
X185420000Y-99060000D03*
X187960000Y-96520000D03*
D10*
X187960000Y-99060000D03*
%TD*%
%TO.C,J5*%
X174498000Y-88519000D03*
D11*
X174498000Y-91059000D03*
%TD*%
%TO.C,J6*%
X174498000Y-81153000D03*
D10*
X174498000Y-78613000D03*
%TD*%
D12*
%TO.C,J7*%
X186130000Y-60071000D03*
D13*
X189230000Y-60071000D03*
D12*
X177830000Y-60071000D03*
%TD*%
%TO.C,J8*%
X177830000Y-69977000D03*
D13*
X189230000Y-69977000D03*
D12*
X186130000Y-69977000D03*
%TD*%
D10*
%TO.C,J9*%
X174498000Y-58801000D03*
D11*
X174498000Y-61341000D03*
%TD*%
%TO.C,J10*%
X174498000Y-71247000D03*
D10*
X174498000Y-68707000D03*
%TD*%
D12*
%TO.C,J1*%
X186130000Y-89789000D03*
D13*
X189230000Y-89789000D03*
D12*
X177830000Y-89789000D03*
%TD*%
%TO.C,J2*%
X177830000Y-79883000D03*
D13*
X189230000Y-79883000D03*
D12*
X186130000Y-79883000D03*
%TD*%
M02*
