%TF.GenerationSoftware,KiCad,Pcbnew,(5.1.6)-1*%
%TF.CreationDate,2020-10-18T20:28:26+13:00*%
%TF.ProjectId,Jacks onboard,4a61636b-7320-46f6-9e62-6f6172642e6b,rev?*%
%TF.SameCoordinates,Original*%
%TF.FileFunction,Legend,Bot*%
%TF.FilePolarity,Positive*%
%FSLAX46Y46*%
G04 Gerber Fmt 4.6, Leading zero omitted, Abs format (unit mm)*
G04 Created by KiCad (PCBNEW (5.1.6)-1) date 2020-10-18 20:28:26*
%MOMM*%
%LPD*%
G01*
G04 APERTURE LIST*
%ADD10C,0.150000*%
%ADD11C,0.120000*%
G04 APERTURE END LIST*
D10*
X184050000Y-93128571D02*
X184097619Y-93223809D01*
X184097619Y-93366666D01*
X184050000Y-93509523D01*
X183954761Y-93604761D01*
X183859523Y-93652380D01*
X183669047Y-93700000D01*
X183526190Y-93700000D01*
X183335714Y-93652380D01*
X183240476Y-93604761D01*
X183145238Y-93509523D01*
X183097619Y-93366666D01*
X183097619Y-93271428D01*
X183145238Y-93128571D01*
X183192857Y-93080952D01*
X183526190Y-93080952D01*
X183526190Y-93271428D01*
X183097619Y-92652380D02*
X183764285Y-92652380D01*
X184097619Y-92652380D02*
X184050000Y-92700000D01*
X184002380Y-92652380D01*
X184050000Y-92604761D01*
X184097619Y-92652380D01*
X184002380Y-92652380D01*
X183764285Y-92319047D02*
X183764285Y-91938095D01*
X184097619Y-92176190D02*
X183240476Y-92176190D01*
X183145238Y-92128571D01*
X183097619Y-92033333D01*
X183097619Y-91938095D01*
X183097619Y-91604761D02*
X184097619Y-91604761D01*
X183097619Y-91176190D02*
X183621428Y-91176190D01*
X183716666Y-91223809D01*
X183764285Y-91319047D01*
X183764285Y-91461904D01*
X183716666Y-91557142D01*
X183669047Y-91604761D01*
X183764285Y-90271428D02*
X183097619Y-90271428D01*
X183764285Y-90700000D02*
X183240476Y-90700000D01*
X183145238Y-90652380D01*
X183097619Y-90557142D01*
X183097619Y-90414285D01*
X183145238Y-90319047D01*
X183192857Y-90271428D01*
X183097619Y-89795238D02*
X184097619Y-89795238D01*
X183716666Y-89795238D02*
X183764285Y-89700000D01*
X183764285Y-89509523D01*
X183716666Y-89414285D01*
X183669047Y-89366666D01*
X183573809Y-89319047D01*
X183288095Y-89319047D01*
X183192857Y-89366666D01*
X183145238Y-89414285D01*
X183097619Y-89509523D01*
X183097619Y-89700000D01*
X183145238Y-89795238D01*
X183192857Y-88890476D02*
X183145238Y-88842857D01*
X183097619Y-88890476D01*
X183145238Y-88938095D01*
X183192857Y-88890476D01*
X183097619Y-88890476D01*
X183145238Y-87985714D02*
X183097619Y-88080952D01*
X183097619Y-88271428D01*
X183145238Y-88366666D01*
X183192857Y-88414285D01*
X183288095Y-88461904D01*
X183573809Y-88461904D01*
X183669047Y-88414285D01*
X183716666Y-88366666D01*
X183764285Y-88271428D01*
X183764285Y-88080952D01*
X183716666Y-87985714D01*
X183097619Y-87414285D02*
X183145238Y-87509523D01*
X183192857Y-87557142D01*
X183288095Y-87604761D01*
X183573809Y-87604761D01*
X183669047Y-87557142D01*
X183716666Y-87509523D01*
X183764285Y-87414285D01*
X183764285Y-87271428D01*
X183716666Y-87176190D01*
X183669047Y-87128571D01*
X183573809Y-87080952D01*
X183288095Y-87080952D01*
X183192857Y-87128571D01*
X183145238Y-87176190D01*
X183097619Y-87271428D01*
X183097619Y-87414285D01*
X183097619Y-86652380D02*
X183764285Y-86652380D01*
X183669047Y-86652380D02*
X183716666Y-86604761D01*
X183764285Y-86509523D01*
X183764285Y-86366666D01*
X183716666Y-86271428D01*
X183621428Y-86223809D01*
X183097619Y-86223809D01*
X183621428Y-86223809D02*
X183716666Y-86176190D01*
X183764285Y-86080952D01*
X183764285Y-85938095D01*
X183716666Y-85842857D01*
X183621428Y-85795238D01*
X183097619Y-85795238D01*
X184145238Y-84604761D02*
X182859523Y-85461904D01*
X182400000Y-91485714D02*
X182447619Y-91580952D01*
X182447619Y-91723809D01*
X182400000Y-91866666D01*
X182304761Y-91961904D01*
X182209523Y-92009523D01*
X182019047Y-92057142D01*
X181876190Y-92057142D01*
X181685714Y-92009523D01*
X181590476Y-91961904D01*
X181495238Y-91866666D01*
X181447619Y-91723809D01*
X181447619Y-91628571D01*
X181495238Y-91485714D01*
X181542857Y-91438095D01*
X181876190Y-91438095D01*
X181876190Y-91628571D01*
X182114285Y-90580952D02*
X181447619Y-90580952D01*
X182114285Y-91009523D02*
X181590476Y-91009523D01*
X181495238Y-90961904D01*
X181447619Y-90866666D01*
X181447619Y-90723809D01*
X181495238Y-90628571D01*
X181542857Y-90580952D01*
X182114285Y-90104761D02*
X181447619Y-90104761D01*
X182019047Y-90104761D02*
X182066666Y-90057142D01*
X182114285Y-89961904D01*
X182114285Y-89819047D01*
X182066666Y-89723809D01*
X181971428Y-89676190D01*
X181447619Y-89676190D01*
X182114285Y-89200000D02*
X181447619Y-89200000D01*
X182019047Y-89200000D02*
X182066666Y-89152380D01*
X182114285Y-89057142D01*
X182114285Y-88914285D01*
X182066666Y-88819047D01*
X181971428Y-88771428D01*
X181447619Y-88771428D01*
X181447619Y-87866666D02*
X181971428Y-87866666D01*
X182066666Y-87914285D01*
X182114285Y-88009523D01*
X182114285Y-88200000D01*
X182066666Y-88295238D01*
X181495238Y-87866666D02*
X181447619Y-87961904D01*
X181447619Y-88200000D01*
X181495238Y-88295238D01*
X181590476Y-88342857D01*
X181685714Y-88342857D01*
X181780952Y-88295238D01*
X181828571Y-88200000D01*
X181828571Y-87961904D01*
X181876190Y-87866666D01*
X181495238Y-87009523D02*
X181447619Y-87104761D01*
X181447619Y-87295238D01*
X181495238Y-87390476D01*
X181590476Y-87438095D01*
X181971428Y-87438095D01*
X182066666Y-87390476D01*
X182114285Y-87295238D01*
X182114285Y-87104761D01*
X182066666Y-87009523D01*
X181971428Y-86961904D01*
X181876190Y-86961904D01*
X181780952Y-87438095D01*
X181447619Y-86533333D02*
X182114285Y-86533333D01*
X181923809Y-86533333D02*
X182019047Y-86485714D01*
X182066666Y-86438095D01*
X182114285Y-86342857D01*
X182114285Y-86247619D01*
X179892857Y-93461904D02*
X179845238Y-93509523D01*
X179797619Y-93652380D01*
X179797619Y-93747619D01*
X179845238Y-93890476D01*
X179940476Y-93985714D01*
X180035714Y-94033333D01*
X180226190Y-94080952D01*
X180369047Y-94080952D01*
X180559523Y-94033333D01*
X180654761Y-93985714D01*
X180750000Y-93890476D01*
X180797619Y-93747619D01*
X180797619Y-93652380D01*
X180750000Y-93509523D01*
X180702380Y-93461904D01*
X179892857Y-92461904D02*
X179845238Y-92509523D01*
X179797619Y-92652380D01*
X179797619Y-92747619D01*
X179845238Y-92890476D01*
X179940476Y-92985714D01*
X180035714Y-93033333D01*
X180226190Y-93080952D01*
X180369047Y-93080952D01*
X180559523Y-93033333D01*
X180654761Y-92985714D01*
X180750000Y-92890476D01*
X180797619Y-92747619D01*
X180797619Y-92652380D01*
X180750000Y-92509523D01*
X180702380Y-92461904D01*
X179797619Y-91271428D02*
X180797619Y-91271428D01*
X180416666Y-91271428D02*
X180464285Y-91176190D01*
X180464285Y-90985714D01*
X180416666Y-90890476D01*
X180369047Y-90842857D01*
X180273809Y-90795238D01*
X179988095Y-90795238D01*
X179892857Y-90842857D01*
X179845238Y-90890476D01*
X179797619Y-90985714D01*
X179797619Y-91176190D01*
X179845238Y-91271428D01*
X180464285Y-90461904D02*
X179797619Y-90223809D01*
X180464285Y-89985714D02*
X179797619Y-90223809D01*
X179559523Y-90319047D01*
X179511904Y-90366666D01*
X179464285Y-90461904D01*
X179845238Y-88890476D02*
X179797619Y-88747619D01*
X179797619Y-88509523D01*
X179845238Y-88414285D01*
X179892857Y-88366666D01*
X179988095Y-88319047D01*
X180083333Y-88319047D01*
X180178571Y-88366666D01*
X180226190Y-88414285D01*
X180273809Y-88509523D01*
X180321428Y-88700000D01*
X180369047Y-88795238D01*
X180416666Y-88842857D01*
X180511904Y-88890476D01*
X180607142Y-88890476D01*
X180702380Y-88842857D01*
X180750000Y-88795238D01*
X180797619Y-88700000D01*
X180797619Y-88461904D01*
X180750000Y-88319047D01*
X180083333Y-87938095D02*
X180083333Y-87461904D01*
X179797619Y-88033333D02*
X180797619Y-87700000D01*
X179797619Y-87366666D01*
X180464285Y-85842857D02*
X179797619Y-85842857D01*
X180845238Y-86080952D02*
X180130952Y-86319047D01*
X180130952Y-85700000D01*
X179892857Y-85319047D02*
X179845238Y-85271428D01*
X179797619Y-85319047D01*
X179845238Y-85366666D01*
X179892857Y-85319047D01*
X179797619Y-85319047D01*
X180797619Y-84652380D02*
X180797619Y-84557142D01*
X180750000Y-84461904D01*
X180702380Y-84414285D01*
X180607142Y-84366666D01*
X180416666Y-84319047D01*
X180178571Y-84319047D01*
X179988095Y-84366666D01*
X179892857Y-84414285D01*
X179845238Y-84461904D01*
X179797619Y-84557142D01*
X179797619Y-84652380D01*
X179845238Y-84747619D01*
X179892857Y-84795238D01*
X179988095Y-84842857D01*
X180178571Y-84890476D01*
X180416666Y-84890476D01*
X180607142Y-84842857D01*
X180702380Y-84795238D01*
X180750000Y-84747619D01*
X180797619Y-84652380D01*
X183097619Y-78190476D02*
X184097619Y-78190476D01*
X183764285Y-77714285D02*
X183097619Y-77714285D01*
X183669047Y-77714285D02*
X183716666Y-77666666D01*
X183764285Y-77571428D01*
X183764285Y-77428571D01*
X183716666Y-77333333D01*
X183621428Y-77285714D01*
X183097619Y-77285714D01*
X183145238Y-76857142D02*
X183097619Y-76761904D01*
X183097619Y-76571428D01*
X183145238Y-76476190D01*
X183240476Y-76428571D01*
X183288095Y-76428571D01*
X183383333Y-76476190D01*
X183430952Y-76571428D01*
X183430952Y-76714285D01*
X183478571Y-76809523D01*
X183573809Y-76857142D01*
X183621428Y-76857142D01*
X183716666Y-76809523D01*
X183764285Y-76714285D01*
X183764285Y-76571428D01*
X183716666Y-76476190D01*
X183764285Y-76000000D02*
X182764285Y-76000000D01*
X183716666Y-76000000D02*
X183764285Y-75904761D01*
X183764285Y-75714285D01*
X183716666Y-75619047D01*
X183669047Y-75571428D01*
X183573809Y-75523809D01*
X183288095Y-75523809D01*
X183192857Y-75571428D01*
X183145238Y-75619047D01*
X183097619Y-75714285D01*
X183097619Y-75904761D01*
X183145238Y-76000000D01*
X183097619Y-75095238D02*
X183764285Y-75095238D01*
X184097619Y-75095238D02*
X184050000Y-75142857D01*
X184002380Y-75095238D01*
X184050000Y-75047619D01*
X184097619Y-75095238D01*
X184002380Y-75095238D01*
X183097619Y-74619047D02*
X183764285Y-74619047D01*
X183573809Y-74619047D02*
X183669047Y-74571428D01*
X183716666Y-74523809D01*
X183764285Y-74428571D01*
X183764285Y-74333333D01*
X183145238Y-73619047D02*
X183097619Y-73714285D01*
X183097619Y-73904761D01*
X183145238Y-74000000D01*
X183240476Y-74047619D01*
X183621428Y-74047619D01*
X183716666Y-74000000D01*
X183764285Y-73904761D01*
X183764285Y-73714285D01*
X183716666Y-73619047D01*
X183621428Y-73571428D01*
X183526190Y-73571428D01*
X183430952Y-74047619D01*
X183097619Y-72714285D02*
X184097619Y-72714285D01*
X183145238Y-72714285D02*
X183097619Y-72809523D01*
X183097619Y-73000000D01*
X183145238Y-73095238D01*
X183192857Y-73142857D01*
X183288095Y-73190476D01*
X183573809Y-73190476D01*
X183669047Y-73142857D01*
X183716666Y-73095238D01*
X183764285Y-73000000D01*
X183764285Y-72809523D01*
X183716666Y-72714285D01*
X183097619Y-71476190D02*
X184097619Y-71476190D01*
X183716666Y-71476190D02*
X183764285Y-71380952D01*
X183764285Y-71190476D01*
X183716666Y-71095238D01*
X183669047Y-71047619D01*
X183573809Y-71000000D01*
X183288095Y-71000000D01*
X183192857Y-71047619D01*
X183145238Y-71095238D01*
X183097619Y-71190476D01*
X183097619Y-71380952D01*
X183145238Y-71476190D01*
X183764285Y-70666666D02*
X183097619Y-70428571D01*
X183764285Y-70190476D02*
X183097619Y-70428571D01*
X182859523Y-70523809D01*
X182811904Y-70571428D01*
X182764285Y-70666666D01*
X183192857Y-69809523D02*
X183145238Y-69761904D01*
X183097619Y-69809523D01*
X183145238Y-69857142D01*
X183192857Y-69809523D01*
X183097619Y-69809523D01*
X183716666Y-69809523D02*
X183669047Y-69761904D01*
X183621428Y-69809523D01*
X183669047Y-69857142D01*
X183716666Y-69809523D01*
X183621428Y-69809523D01*
X181447619Y-81428571D02*
X182447619Y-81428571D01*
X181733333Y-81095238D01*
X182447619Y-80761904D01*
X181447619Y-80761904D01*
X182114285Y-79857142D02*
X181447619Y-79857142D01*
X182114285Y-80285714D02*
X181590476Y-80285714D01*
X181495238Y-80238095D01*
X181447619Y-80142857D01*
X181447619Y-80000000D01*
X181495238Y-79904761D01*
X181542857Y-79857142D01*
X182114285Y-79523809D02*
X182114285Y-79142857D01*
X182447619Y-79380952D02*
X181590476Y-79380952D01*
X181495238Y-79333333D01*
X181447619Y-79238095D01*
X181447619Y-79142857D01*
X181447619Y-78380952D02*
X181971428Y-78380952D01*
X182066666Y-78428571D01*
X182114285Y-78523809D01*
X182114285Y-78714285D01*
X182066666Y-78809523D01*
X181495238Y-78380952D02*
X181447619Y-78476190D01*
X181447619Y-78714285D01*
X181495238Y-78809523D01*
X181590476Y-78857142D01*
X181685714Y-78857142D01*
X181780952Y-78809523D01*
X181828571Y-78714285D01*
X181828571Y-78476190D01*
X181876190Y-78380952D01*
X181447619Y-77904761D02*
X182447619Y-77904761D01*
X182066666Y-77904761D02*
X182114285Y-77809523D01*
X182114285Y-77619047D01*
X182066666Y-77523809D01*
X182019047Y-77476190D01*
X181923809Y-77428571D01*
X181638095Y-77428571D01*
X181542857Y-77476190D01*
X181495238Y-77523809D01*
X181447619Y-77619047D01*
X181447619Y-77809523D01*
X181495238Y-77904761D01*
X181447619Y-76857142D02*
X181495238Y-76952380D01*
X181590476Y-77000000D01*
X182447619Y-77000000D01*
X181495238Y-76095238D02*
X181447619Y-76190476D01*
X181447619Y-76380952D01*
X181495238Y-76476190D01*
X181590476Y-76523809D01*
X181971428Y-76523809D01*
X182066666Y-76476190D01*
X182114285Y-76380952D01*
X182114285Y-76190476D01*
X182066666Y-76095238D01*
X181971428Y-76047619D01*
X181876190Y-76047619D01*
X181780952Y-76523809D01*
X181447619Y-74857142D02*
X182447619Y-74857142D01*
X182114285Y-74380952D02*
X181447619Y-74380952D01*
X182019047Y-74380952D02*
X182066666Y-74333333D01*
X182114285Y-74238095D01*
X182114285Y-74095238D01*
X182066666Y-74000000D01*
X181971428Y-73952380D01*
X181447619Y-73952380D01*
X181495238Y-73523809D02*
X181447619Y-73428571D01*
X181447619Y-73238095D01*
X181495238Y-73142857D01*
X181590476Y-73095238D01*
X181638095Y-73095238D01*
X181733333Y-73142857D01*
X181780952Y-73238095D01*
X181780952Y-73380952D01*
X181828571Y-73476190D01*
X181923809Y-73523809D01*
X181971428Y-73523809D01*
X182066666Y-73476190D01*
X182114285Y-73380952D01*
X182114285Y-73238095D01*
X182066666Y-73142857D01*
X182114285Y-72809523D02*
X182114285Y-72428571D01*
X182447619Y-72666666D02*
X181590476Y-72666666D01*
X181495238Y-72619047D01*
X181447619Y-72523809D01*
X181447619Y-72428571D01*
X181447619Y-72095238D02*
X182114285Y-72095238D01*
X181923809Y-72095238D02*
X182019047Y-72047619D01*
X182066666Y-72000000D01*
X182114285Y-71904761D01*
X182114285Y-71809523D01*
X182114285Y-71047619D02*
X181447619Y-71047619D01*
X182114285Y-71476190D02*
X181590476Y-71476190D01*
X181495238Y-71428571D01*
X181447619Y-71333333D01*
X181447619Y-71190476D01*
X181495238Y-71095238D01*
X181542857Y-71047619D01*
X181447619Y-70571428D02*
X182114285Y-70571428D01*
X182019047Y-70571428D02*
X182066666Y-70523809D01*
X182114285Y-70428571D01*
X182114285Y-70285714D01*
X182066666Y-70190476D01*
X181971428Y-70142857D01*
X181447619Y-70142857D01*
X181971428Y-70142857D02*
X182066666Y-70095238D01*
X182114285Y-70000000D01*
X182114285Y-69857142D01*
X182066666Y-69761904D01*
X181971428Y-69714285D01*
X181447619Y-69714285D01*
X181495238Y-68857142D02*
X181447619Y-68952380D01*
X181447619Y-69142857D01*
X181495238Y-69238095D01*
X181590476Y-69285714D01*
X181971428Y-69285714D01*
X182066666Y-69238095D01*
X182114285Y-69142857D01*
X182114285Y-68952380D01*
X182066666Y-68857142D01*
X181971428Y-68809523D01*
X181876190Y-68809523D01*
X181780952Y-69285714D01*
X182114285Y-68380952D02*
X181447619Y-68380952D01*
X182019047Y-68380952D02*
X182066666Y-68333333D01*
X182114285Y-68238095D01*
X182114285Y-68095238D01*
X182066666Y-68000000D01*
X181971428Y-67952380D01*
X181447619Y-67952380D01*
X182114285Y-67619047D02*
X182114285Y-67238095D01*
X182447619Y-67476190D02*
X181590476Y-67476190D01*
X181495238Y-67428571D01*
X181447619Y-67333333D01*
X181447619Y-67238095D01*
X181495238Y-66952380D02*
X181447619Y-66857142D01*
X181447619Y-66666666D01*
X181495238Y-66571428D01*
X181590476Y-66523809D01*
X181638095Y-66523809D01*
X181733333Y-66571428D01*
X181780952Y-66666666D01*
X181780952Y-66809523D01*
X181828571Y-66904761D01*
X181923809Y-66952380D01*
X181971428Y-66952380D01*
X182066666Y-66904761D01*
X182114285Y-66809523D01*
X182114285Y-66666666D01*
X182066666Y-66571428D01*
X180321428Y-78404761D02*
X180321428Y-78071428D01*
X179797619Y-77928571D02*
X179797619Y-78404761D01*
X180797619Y-78404761D01*
X180797619Y-77928571D01*
X179797619Y-77500000D02*
X180464285Y-77500000D01*
X180369047Y-77500000D02*
X180416666Y-77452380D01*
X180464285Y-77357142D01*
X180464285Y-77214285D01*
X180416666Y-77119047D01*
X180321428Y-77071428D01*
X179797619Y-77071428D01*
X180321428Y-77071428D02*
X180416666Y-77023809D01*
X180464285Y-76928571D01*
X180464285Y-76785714D01*
X180416666Y-76690476D01*
X180321428Y-76642857D01*
X179797619Y-76642857D01*
X179797619Y-76166666D02*
X180464285Y-76166666D01*
X180797619Y-76166666D02*
X180750000Y-76214285D01*
X180702380Y-76166666D01*
X180750000Y-76119047D01*
X180797619Y-76166666D01*
X180702380Y-76166666D01*
X179797619Y-75547619D02*
X179845238Y-75642857D01*
X179940476Y-75690476D01*
X180797619Y-75690476D01*
X179797619Y-75166666D02*
X180464285Y-75166666D01*
X180797619Y-75166666D02*
X180750000Y-75214285D01*
X180702380Y-75166666D01*
X180750000Y-75119047D01*
X180797619Y-75166666D01*
X180702380Y-75166666D01*
X179845238Y-74309523D02*
X179797619Y-74404761D01*
X179797619Y-74595238D01*
X179845238Y-74690476D01*
X179940476Y-74738095D01*
X180321428Y-74738095D01*
X180416666Y-74690476D01*
X180464285Y-74595238D01*
X180464285Y-74404761D01*
X180416666Y-74309523D01*
X180321428Y-74261904D01*
X180226190Y-74261904D01*
X180130952Y-74738095D01*
X180750000Y-72547619D02*
X180797619Y-72642857D01*
X180797619Y-72785714D01*
X180750000Y-72928571D01*
X180654761Y-73023809D01*
X180559523Y-73071428D01*
X180369047Y-73119047D01*
X180226190Y-73119047D01*
X180035714Y-73071428D01*
X179940476Y-73023809D01*
X179845238Y-72928571D01*
X179797619Y-72785714D01*
X179797619Y-72690476D01*
X179845238Y-72547619D01*
X179892857Y-72500000D01*
X180226190Y-72500000D01*
X180226190Y-72690476D01*
X179797619Y-72071428D02*
X180464285Y-72071428D01*
X180797619Y-72071428D02*
X180750000Y-72119047D01*
X180702380Y-72071428D01*
X180750000Y-72023809D01*
X180797619Y-72071428D01*
X180702380Y-72071428D01*
X179797619Y-71452380D02*
X179845238Y-71547619D01*
X179940476Y-71595238D01*
X180797619Y-71595238D01*
X179797619Y-70928571D02*
X179845238Y-71023809D01*
X179940476Y-71071428D01*
X180797619Y-71071428D01*
X179845238Y-70166666D02*
X179797619Y-70261904D01*
X179797619Y-70452380D01*
X179845238Y-70547619D01*
X179940476Y-70595238D01*
X180321428Y-70595238D01*
X180416666Y-70547619D01*
X180464285Y-70452380D01*
X180464285Y-70261904D01*
X180416666Y-70166666D01*
X180321428Y-70119047D01*
X180226190Y-70119047D01*
X180130952Y-70595238D01*
X180464285Y-69833333D02*
X180464285Y-69452380D01*
X180797619Y-69690476D02*
X179940476Y-69690476D01*
X179845238Y-69642857D01*
X179797619Y-69547619D01*
X179797619Y-69452380D01*
X183621428Y-63623809D02*
X183573809Y-63480952D01*
X183526190Y-63433333D01*
X183430952Y-63385714D01*
X183288095Y-63385714D01*
X183192857Y-63433333D01*
X183145238Y-63480952D01*
X183097619Y-63576190D01*
X183097619Y-63957142D01*
X184097619Y-63957142D01*
X184097619Y-63623809D01*
X184050000Y-63528571D01*
X184002380Y-63480952D01*
X183907142Y-63433333D01*
X183811904Y-63433333D01*
X183716666Y-63480952D01*
X183669047Y-63528571D01*
X183621428Y-63623809D01*
X183621428Y-63957142D01*
X183621428Y-62623809D02*
X183573809Y-62480952D01*
X183526190Y-62433333D01*
X183430952Y-62385714D01*
X183288095Y-62385714D01*
X183192857Y-62433333D01*
X183145238Y-62480952D01*
X183097619Y-62576190D01*
X183097619Y-62957142D01*
X184097619Y-62957142D01*
X184097619Y-62623809D01*
X184050000Y-62528571D01*
X184002380Y-62480952D01*
X183907142Y-62433333D01*
X183811904Y-62433333D01*
X183716666Y-62480952D01*
X183669047Y-62528571D01*
X183621428Y-62623809D01*
X183621428Y-62957142D01*
X183621428Y-60861904D02*
X183621428Y-61195238D01*
X183097619Y-61195238D02*
X184097619Y-61195238D01*
X184097619Y-60719047D01*
X183097619Y-60338095D02*
X183764285Y-60338095D01*
X183573809Y-60338095D02*
X183669047Y-60290476D01*
X183716666Y-60242857D01*
X183764285Y-60147619D01*
X183764285Y-60052380D01*
X183097619Y-59719047D02*
X183764285Y-59719047D01*
X184097619Y-59719047D02*
X184050000Y-59766666D01*
X184002380Y-59719047D01*
X184050000Y-59671428D01*
X184097619Y-59719047D01*
X184002380Y-59719047D01*
X183145238Y-58861904D02*
X183097619Y-58957142D01*
X183097619Y-59147619D01*
X183145238Y-59242857D01*
X183240476Y-59290476D01*
X183621428Y-59290476D01*
X183716666Y-59242857D01*
X183764285Y-59147619D01*
X183764285Y-58957142D01*
X183716666Y-58861904D01*
X183621428Y-58814285D01*
X183526190Y-58814285D01*
X183430952Y-59290476D01*
X183764285Y-58385714D02*
X183097619Y-58385714D01*
X183669047Y-58385714D02*
X183716666Y-58338095D01*
X183764285Y-58242857D01*
X183764285Y-58100000D01*
X183716666Y-58004761D01*
X183621428Y-57957142D01*
X183097619Y-57957142D01*
X183097619Y-57052380D02*
X184097619Y-57052380D01*
X183145238Y-57052380D02*
X183097619Y-57147619D01*
X183097619Y-57338095D01*
X183145238Y-57433333D01*
X183192857Y-57480952D01*
X183288095Y-57528571D01*
X183573809Y-57528571D01*
X183669047Y-57480952D01*
X183716666Y-57433333D01*
X183764285Y-57338095D01*
X183764285Y-57147619D01*
X183716666Y-57052380D01*
X183145238Y-56623809D02*
X183097619Y-56528571D01*
X183097619Y-56338095D01*
X183145238Y-56242857D01*
X183240476Y-56195238D01*
X183288095Y-56195238D01*
X183383333Y-56242857D01*
X183430952Y-56338095D01*
X183430952Y-56480952D01*
X183478571Y-56576190D01*
X183573809Y-56623809D01*
X183621428Y-56623809D01*
X183716666Y-56576190D01*
X183764285Y-56480952D01*
X183764285Y-56338095D01*
X183716666Y-56242857D01*
X182447619Y-63719047D02*
X182447619Y-63147619D01*
X181447619Y-63433333D02*
X182447619Y-63433333D01*
X181447619Y-62814285D02*
X182447619Y-62814285D01*
X181447619Y-62385714D02*
X181971428Y-62385714D01*
X182066666Y-62433333D01*
X182114285Y-62528571D01*
X182114285Y-62671428D01*
X182066666Y-62766666D01*
X182019047Y-62814285D01*
X181447619Y-61766666D02*
X181495238Y-61861904D01*
X181542857Y-61909523D01*
X181638095Y-61957142D01*
X181923809Y-61957142D01*
X182019047Y-61909523D01*
X182066666Y-61861904D01*
X182114285Y-61766666D01*
X182114285Y-61623809D01*
X182066666Y-61528571D01*
X182019047Y-61480952D01*
X181923809Y-61433333D01*
X181638095Y-61433333D01*
X181542857Y-61480952D01*
X181495238Y-61528571D01*
X181447619Y-61623809D01*
X181447619Y-61766666D01*
X182114285Y-61004761D02*
X181447619Y-61004761D01*
X182019047Y-61004761D02*
X182066666Y-60957142D01*
X182114285Y-60861904D01*
X182114285Y-60719047D01*
X182066666Y-60623809D01*
X181971428Y-60576190D01*
X181447619Y-60576190D01*
X181447619Y-60100000D02*
X182447619Y-60100000D01*
X181828571Y-60004761D02*
X181447619Y-59719047D01*
X182114285Y-59719047D02*
X181733333Y-60100000D01*
X181447619Y-59290476D02*
X182114285Y-59290476D01*
X182447619Y-59290476D02*
X182400000Y-59338095D01*
X182352380Y-59290476D01*
X182400000Y-59242857D01*
X182447619Y-59290476D01*
X182352380Y-59290476D01*
X181495238Y-58385714D02*
X181447619Y-58480952D01*
X181447619Y-58671428D01*
X181495238Y-58766666D01*
X181542857Y-58814285D01*
X181638095Y-58861904D01*
X181923809Y-58861904D01*
X182019047Y-58814285D01*
X182066666Y-58766666D01*
X182114285Y-58671428D01*
X182114285Y-58480952D01*
X182066666Y-58385714D01*
X181447619Y-57814285D02*
X181495238Y-57909523D01*
X181542857Y-57957142D01*
X181638095Y-58004761D01*
X181923809Y-58004761D01*
X182019047Y-57957142D01*
X182066666Y-57909523D01*
X182114285Y-57814285D01*
X182114285Y-57671428D01*
X182066666Y-57576190D01*
X182019047Y-57528571D01*
X181923809Y-57480952D01*
X181638095Y-57480952D01*
X181542857Y-57528571D01*
X181495238Y-57576190D01*
X181447619Y-57671428D01*
X181447619Y-57814285D01*
X182114285Y-57052380D02*
X181447619Y-57052380D01*
X182019047Y-57052380D02*
X182066666Y-57004761D01*
X182114285Y-56909523D01*
X182114285Y-56766666D01*
X182066666Y-56671428D01*
X181971428Y-56623809D01*
X181447619Y-56623809D01*
X180321428Y-62433333D02*
X180321428Y-62100000D01*
X179797619Y-61957142D02*
X179797619Y-62433333D01*
X180797619Y-62433333D01*
X180797619Y-61957142D01*
X179797619Y-61100000D02*
X180797619Y-61100000D01*
X179845238Y-61100000D02*
X179797619Y-61195238D01*
X179797619Y-61385714D01*
X179845238Y-61480952D01*
X179892857Y-61528571D01*
X179988095Y-61576190D01*
X180273809Y-61576190D01*
X180369047Y-61528571D01*
X180416666Y-61480952D01*
X180464285Y-61385714D01*
X180464285Y-61195238D01*
X180416666Y-61100000D01*
X179797619Y-60623809D02*
X180464285Y-60623809D01*
X180797619Y-60623809D02*
X180750000Y-60671428D01*
X180702380Y-60623809D01*
X180750000Y-60576190D01*
X180797619Y-60623809D01*
X180702380Y-60623809D01*
X180464285Y-60290476D02*
X180464285Y-59909523D01*
X180797619Y-60147619D02*
X179940476Y-60147619D01*
X179845238Y-60100000D01*
X179797619Y-60004761D01*
X179797619Y-59909523D01*
X179797619Y-59576190D02*
X180464285Y-59576190D01*
X180797619Y-59576190D02*
X180750000Y-59623809D01*
X180702380Y-59576190D01*
X180750000Y-59528571D01*
X180797619Y-59576190D01*
X180702380Y-59576190D01*
X179797619Y-58957142D02*
X179845238Y-59052380D01*
X179892857Y-59100000D01*
X179988095Y-59147619D01*
X180273809Y-59147619D01*
X180369047Y-59100000D01*
X180416666Y-59052380D01*
X180464285Y-58957142D01*
X180464285Y-58814285D01*
X180416666Y-58719047D01*
X180369047Y-58671428D01*
X180273809Y-58623809D01*
X179988095Y-58623809D01*
X179892857Y-58671428D01*
X179845238Y-58719047D01*
X179797619Y-58814285D01*
X179797619Y-58957142D01*
X180464285Y-58195238D02*
X179797619Y-58195238D01*
X180369047Y-58195238D02*
X180416666Y-58147619D01*
X180464285Y-58052380D01*
X180464285Y-57909523D01*
X180416666Y-57814285D01*
X180321428Y-57766666D01*
X179797619Y-57766666D01*
D11*
%TO.C,J3*%
X176470000Y-54670000D02*
X176470000Y-49470000D01*
X186690000Y-54670000D02*
X176470000Y-54670000D01*
X189290000Y-49470000D02*
X176470000Y-49470000D01*
X186690000Y-54670000D02*
X186690000Y-52070000D01*
X186690000Y-52070000D02*
X189290000Y-52070000D01*
X189290000Y-52070000D02*
X189290000Y-49470000D01*
X187960000Y-54670000D02*
X189290000Y-54670000D01*
X189290000Y-54670000D02*
X189290000Y-53340000D01*
%TO.C,J4*%
X189290000Y-100390000D02*
X189290000Y-99060000D01*
X187960000Y-100390000D02*
X189290000Y-100390000D01*
X189290000Y-97790000D02*
X189290000Y-95190000D01*
X186690000Y-97790000D02*
X189290000Y-97790000D01*
X186690000Y-100390000D02*
X186690000Y-97790000D01*
X189290000Y-95190000D02*
X176470000Y-95190000D01*
X186690000Y-100390000D02*
X176470000Y-100390000D01*
X176470000Y-100390000D02*
X176470000Y-95190000D01*
%TO.C,J3*%
D10*
X189742380Y-51736666D02*
X190456666Y-51736666D01*
X190599523Y-51689047D01*
X190694761Y-51593809D01*
X190742380Y-51450952D01*
X190742380Y-51355714D01*
X189742380Y-52117619D02*
X189742380Y-52736666D01*
X190123333Y-52403333D01*
X190123333Y-52546190D01*
X190170952Y-52641428D01*
X190218571Y-52689047D01*
X190313809Y-52736666D01*
X190551904Y-52736666D01*
X190647142Y-52689047D01*
X190694761Y-52641428D01*
X190742380Y-52546190D01*
X190742380Y-52260476D01*
X190694761Y-52165238D01*
X190647142Y-52117619D01*
%TO.C,J4*%
X189742380Y-97456666D02*
X190456666Y-97456666D01*
X190599523Y-97409047D01*
X190694761Y-97313809D01*
X190742380Y-97170952D01*
X190742380Y-97075714D01*
X190075714Y-98361428D02*
X190742380Y-98361428D01*
X189694761Y-98123333D02*
X190409047Y-97885238D01*
X190409047Y-98504285D01*
%TD*%
M02*
